<svg width="27" height="41" viewBox="0 0 27 41" fill="none" xmlns="http://www.w3.org/2000/svg">
<path d="M22.9326 27.3309H16.7006C14.7733 27.3309 13.2109 28.9474 13.2109 30.9415V37.3895C13.2109 39.3835 14.7733 41 16.7006 41H22.9326C24.8599 41 26.4222 39.3835 26.4222 37.3895V30.9415C26.4222 28.9474 24.8599 27.3309 22.9326 27.3309Z" fill="#90E0EF"/>
<path d="M22.9326 0H16.7006C14.7733 0 13.2109 1.6165 13.2109 3.61055V10.0585C13.2109 12.0526 14.7733 13.6691 16.7006 13.6691H22.9326C24.8599 13.6691 26.4222 12.0526 26.4222 10.0585V3.61055C26.4222 1.6165 24.8599 0 22.9326 0Z" fill="#0077B6"/>
<path d="M9.72166 0H3.48964C1.56236 0 0 1.6165 0 3.61055V10.0585C0 12.0526 1.56236 13.6691 3.48964 13.6691H9.72166C11.6489 13.6691 13.2113 12.0526 13.2113 10.0585V3.61055C13.2113 1.6165 11.6489 0 9.72166 0Z" fill="#03045E"/>
<path d="M9.72142 13.6618H3.48939C1.56212 13.6618 -0.000244141 15.2783 -0.000244141 17.2724V23.7204C-0.000244141 25.7144 1.56212 27.3309 3.48939 27.3309H9.72142C11.6487 27.3309 13.2111 25.7144 13.2111 23.7204V17.2724C13.2111 15.2783 11.6487 13.6618 9.72142 13.6618Z" fill="#00ABFF"/>
</svg>
