<svg width="34" height="32" viewBox="0 0 34 32" fill="none" xmlns="http://www.w3.org/2000/svg">
<path fill-rule="evenodd" clip-rule="evenodd" d="M10.6791 2.62427L10.6795 4.77027L11.7218 5.35821C12.2952 5.68158 12.8091 5.96379 12.8641 5.98531C12.9191 6.00695 12.964 5.27931 12.964 4.36847L12.964 2.71246L16.8131 2.71246L20.6621 2.71246L20.6647 8.26854L20.6674 13.8246L22.2029 14.6771C23.0474 15.1461 23.784 15.5297 23.8398 15.5297C24.0729 15.5297 26.0855 14.3176 25.994 14.2323C25.9392 14.181 25.2448 13.7691 24.4509 13.3167L23.0076 12.4945L22.9831 11.2781C22.9697 10.6091 22.9562 7.90542 22.9531 5.27002L22.9474 0.478272L16.8131 0.478272L10.6787 0.478272L10.6791 2.62427ZM5.71442 3.73384C5.48324 4.10989 4.65606 5.50226 3.87628 6.82807C3.09637 8.15389 1.89945 10.1869 1.21625 11.3457C0.533167 12.5046 -0.0124302 13.465 0.00392811 13.48C0.15007 13.613 3.63283 15.5297 3.72857 15.5297C3.95001 15.5297 5.99215 14.3384 5.93249 14.2439C5.90086 14.194 5.27792 13.8233 4.54805 13.4203C3.8183 13.0175 3.22122 12.6425 3.22122 12.5872C3.22122 12.532 3.71666 11.65 4.32228 10.6275C5.47494 8.68139 6.76448 6.5227 6.92782 6.26612C6.99951 6.15347 7.29336 6.26788 8.09937 6.72271C8.69103 7.05655 10.5825 8.12367 12.3025 9.09425C14.0225 10.0647 15.7412 11.0339 16.1218 11.2478L16.8137 11.6368L18.347 10.7753L19.8802 9.91396L19.9144 8.66493C19.9383 7.78772 19.9077 7.41602 19.8112 7.41602C19.7357 7.41602 19.061 7.75997 18.3121 8.18035C17.5633 8.60073 16.8916 8.94468 16.8197 8.94468C16.6951 8.94468 15.1351 8.08016 9.14065 4.68866C7.66623 3.8546 6.38668 3.1446 6.29731 3.11109C6.19423 3.0724 5.98097 3.30029 5.71442 3.73384ZM26.0146 3.8225C25.2869 4.23665 24.4614 4.70983 24.1803 4.8741L23.6691 5.17278L23.6691 6.47778C23.6691 7.19542 23.7096 7.76032 23.7593 7.73292C23.809 7.70552 24.4449 7.35123 25.1726 6.94566C25.9003 6.5401 26.5313 6.18886 26.5748 6.16523C26.6599 6.1189 30.4049 12.3822 30.4049 12.5709C30.4049 12.6333 29.5794 13.1471 28.5706 13.7126C27.5618 14.2779 26.0326 15.1468 25.1726 15.6434C24.3126 16.1399 22.9478 16.9129 22.1396 17.3609L20.6704 18.1754L20.6662 19.9598L20.6621 21.7442L21.7288 22.341C22.3155 22.6692 22.8433 22.9379 22.9016 22.9379C22.9598 22.938 22.9901 22.1761 22.9687 21.2447L22.9299 19.5514L24.0512 18.9092C24.6681 18.5558 25.9033 17.8542 26.7964 17.3497C27.6895 16.8454 28.7179 16.2638 29.0818 16.0574C29.4456 15.8511 30.5552 15.2259 31.5476 14.6682C32.5399 14.1105 33.4256 13.6063 33.5159 13.5478C33.6455 13.4637 33.5195 13.1705 32.9144 12.1486C32.4935 11.4376 31.1206 9.10495 29.8636 6.96518C28.6067 4.8253 27.5241 3.07334 27.458 3.07205C27.3918 3.07064 26.7423 3.40835 26.0146 3.8225ZM10.6742 9.04169C10.6717 9.08531 10.6582 9.88833 10.6442 10.8261L10.6185 12.5311L8.09263 13.952C4.11287 16.1905 0.0368861 18.4941 0.000440721 18.5255C-0.0178421 18.5411 0.682557 19.7652 1.55688 21.2457C2.43121 22.726 3.75527 24.9691 4.49922 26.2302C5.24328 27.4914 5.92732 28.6252 6.01946 28.7498C6.17967 28.9668 6.2605 28.9351 7.92159 28.005C8.87567 27.4707 9.72593 26.9681 9.81097 26.888C9.92248 26.7831 9.95603 26.3942 9.93126 25.4907L9.89686 24.2389L8.46671 25.0613C7.68006 25.5135 7.01852 25.8662 6.99675 25.8448C6.92169 25.7714 3.67697 20.292 3.44074 19.8396C3.31071 19.5908 3.22315 19.3691 3.24588 19.3467C3.31095 19.2832 7.71266 16.7765 10.4682 15.2338L12.964 13.8365L12.964 12.0556L12.964 10.2747L11.8214 9.61846C11.1929 9.25758 10.6766 8.99794 10.6742 9.04169ZM8.67347 17.0289C8.13389 17.3362 7.68283 17.6356 7.67104 17.6943C7.65926 17.7531 8.31768 18.1778 9.13403 18.638L10.6185 19.4746L10.6497 25.4983L10.6809 31.5217L16.8062 31.5218L22.9314 31.5218L22.9695 31.1984C22.9905 31.0206 22.9908 30.0548 22.9703 29.0524L22.933 27.2298L21.8665 26.6124C21.2798 26.2729 20.7689 25.9951 20.731 25.9951C20.6931 25.9951 20.6621 26.7359 20.6621 27.6413L20.6621 29.2876L16.8131 29.2876L12.964 29.2876L12.9618 23.7315L12.9596 18.1754L11.4475 17.3229C10.6159 16.8539 9.8722 16.4704 9.79486 16.4704C9.71764 16.4704 9.21293 16.7217 8.67347 17.0289ZM28.7369 17.0349C28.1834 17.3446 27.736 17.6487 27.7424 17.7105C27.7489 17.7722 28.336 18.1501 29.047 18.5504C29.7581 18.9507 30.3569 19.328 30.3777 19.389C30.4108 19.4863 26.9093 25.5712 26.6979 25.7834C26.6083 25.8734 25.5015 25.269 18.7131 21.423L16.8244 20.3528L15.255 21.2428L13.6857 22.1327L13.6857 23.4172C13.6857 24.1236 13.7101 24.7016 13.7401 24.7016C13.7699 24.7016 14.4454 24.3312 15.241 23.8785C16.0366 23.4258 16.7475 23.0553 16.8206 23.0553C16.8939 23.0553 19.3001 24.3782 22.168 25.9951C25.0359 27.6119 27.4264 28.9333 27.4802 28.9315C27.5341 28.9297 27.8454 28.4667 28.1719 27.9026C28.4983 27.3385 29.87 25.0078 31.2202 22.7233C32.5702 20.4388 33.6547 18.5499 33.6301 18.5258C33.4835 18.3825 29.9958 16.4705 29.8819 16.471C29.8056 16.4713 29.2905 16.7251 28.7369 17.0349Z" fill="#3D4063"/>
</svg>
